<?xml version="1.0" encoding="UTF-8" standalone="no"?>
<svg
   height="128"
   width="128"
   version="1.1"
   id="svg56"
   xml:space="preserve"
   xmlns:xlink="http://www.w3.org/1999/xlink"
   xmlns="http://www.w3.org/2000/svg"
   xmlns:svg="http://www.w3.org/2000/svg"><defs
     id="defs60"><linearGradient
       id="linearGradient1593"><stop
         style="stop-color:#fff8c0;stop-opacity:0.68648648;"
         offset="0"
         id="stop1589" /><stop
         style="stop-color:#f8b100;stop-opacity:0.50810808;"
         offset="1"
         id="stop1591" /></linearGradient><radialGradient
       xlink:href="#linearGradient1593"
       id="radialGradient1595"
       cx="64.68974"
       cy="56.639447"
       fx="64.68974"
       fy="56.639447"
       r="27.041898"
       gradientTransform="matrix(1,0,0,1.3203316,0,-18.143406)"
       gradientUnits="userSpaceOnUse" /></defs><g
     id="g280"
     style="fill:none;stroke:#ff0000;stroke-width:3.64724;stroke-linecap:round;stroke-linejoin:round;stroke-dasharray:7.29449, 7.29449;paint-order:markers fill stroke"><path
       id="path292"
       style="fill:#e9e9ff;fill-rule:evenodd;stroke:none;stroke-width:17.0837;stroke-linejoin:round"
       d="M 65.657407,3.3523886 118.86463,17.134343 V 72.026691 L 65.657407,49.071569 Z"
       points="118.86463,17.134343 118.86463,72.026691 65.657407,49.071569 65.657407,3.3523886 " /><path
       id="path282"
       style="fill:#353564;fill-rule:evenodd;stroke:none;stroke-width:17.0837;stroke-linejoin:round"
       d="M 8.1055412,23.485044 V 82.604372 L 65.657407,49.071569 V 3.3523886 Z"
       points="8.1055412,82.604372 65.657407,49.071569 65.657407,3.3523886 8.1055412,23.485044 " /><path
       id="path290"
       style="fill:#afafde;fill-rule:evenodd;stroke:none;stroke-width:17.0837;stroke-linejoin:round"
       d="M 8.1055412,82.604372 65.341771,123.38587 118.86463,72.026691 65.657407,49.071569 Z"
       points="65.341771,123.38587 118.86463,72.026691 65.657407,49.071569 8.1055412,82.604372 " /><path
       id="path284"
       style="fill:#4d4d9f;fill-rule:evenodd;stroke:none;stroke-width:17.0837;stroke-linejoin:round"
       d="M 8.1055412,23.485044 65.341771,47.969724 118.86463,17.134343 65.657407,3.3523886 Z"
       points="65.341771,47.969724 118.86463,17.134343 65.657407,3.3523886 8.1055412,23.485044 " /><path
       id="path288"
       style="fill:#d7d7ff;fill-rule:evenodd;stroke:none;stroke-width:17.0837;stroke-linejoin:round"
       d="M 65.341771,47.969724 V 123.38587 L 118.86463,72.026691 V 17.134343 Z"
       points="65.341771,123.38587 118.86463,72.026691 118.86463,17.134343 65.341771,47.969724 " /><path
       id="path286"
       style="fill:#8686bf;fill-rule:evenodd;stroke:none;stroke-width:17.0837;stroke-linejoin:round"
       d="M 8.1055412,23.485044 65.341771,47.969724 V 123.38587 L 8.1055412,82.604372 Z"
       points="65.341771,47.969724 65.341771,123.38587 8.1055412,82.604372 8.1055412,23.485044 " /></g><path
     id="path424"
     style="fill:url(#radialGradient1595);stroke:none;stroke-width:0.171;stroke-linecap:round;stroke-linejoin:round;stroke-dasharray:none;paint-order:markers fill stroke;fill-opacity:1"
     d="m 56.90625,21.986328 c -7.774699,1.927442 -13.515864,6.639549 -17.205078,13.113281 -3.852232,9.867063 -1.901583,19.077315 2.68164,28.105469 5.179781,9.898482 7.727104,13.18885 8.820313,23.494141 0.423774,4.212787 1.974158,5.269652 3.232422,5.498047 7.255942,0.272918 12.917577,0.131043 19.878906,-0.152344 3.405033,0.09826 3.347684,-1.908795 3.78125,-6.240234 0.432988,-4.325652 0.726369,-6.079934 2.189453,-10.339844 1.49707,-4.358862 3.436649,-8.93865 6.396485,-14.371094 3.701714,-6.296235 6.071572,-12.172811 4.615234,-19.535156 C 89.937943,32.873397 83.46014,26.357952 75.910156,23.193359 69.117691,20.640087 63.816631,20.272615 56.90625,21.986328 Z M 77.441406,57.6875 c -1.845065,3.716094 -6.391852,8.305879 -10.355468,10.451172 -4.415176,2.035987 -8.556323,-0.37308 -11.462891,-3.195313 -3.137716,-3.114039 -3.727498,-8.463828 -2.59375,-9.474609 1.419855,-0.958067 3.592713,-2.626506 5.652344,-1.496094 l 6.363281,10.820313 c 0.783234,-6.433457 5.056889,-10.629409 8.638672,-13.90625 4.513552,-1.750681 4.752512,4.763607 3.757812,6.800781 z" /><path
     style="fill:#000000;stroke-width:0.069847"
     d="m 63.178112,113.09475 c -2.11229,-0.10649 -6.402529,-2.31346 -5.955721,-3.61929 5.123181,-0.0351 10.250139,-0.0911 15.37158,0.0332 -2.279452,2.73404 -5.902576,4.05801 -9.415859,3.58614 z m -9.250725,-4.63106 c -3.073555,-0.51077 -1.408887,-4.52361 0.03828,-4.58941 -2.919458,-0.44826 -1.837275,-4.388737 0.1056,-4.567982 -3.725054,-0.799047 -1.363734,-5.472859 1.566161,-4.528424 6.576972,0.05172 13.191158,-0.103114 19.744965,0.07718 2.872866,0.599092 1.485067,4.431938 -0.162086,4.586035 3.808996,0.510737 0.643359,4.694642 0.08875,4.621472 3.532916,0.846 1.231872,5.4047 -1.609166,4.47214 -6.590259,-0.0279 -13.18626,0.10922 -19.772505,-0.071 z m 15.024867,-3.04788 c 2.249204,-1.85301 -1.058249,-2.96591 -2.680772,-2.452 -3.196189,0.0521 -6.418188,-0.13684 -9.593148,0.13419 -2.177947,1.88758 1.13957,2.94567 2.752023,2.44898 3.171809,-0.05 6.369822,0.13553 9.521897,-0.13117 z m 3.908255,-5.21825 c 1.991965,-4.055609 -5.830879,-1.893076 -8.285078,-2.433399 -2.580322,0.643411 -9.315969,-1.744255 -8.484565,2.215603 3.134374,0.804896 6.649739,0.191186 9.940982,0.376666 2.259355,-0.1043 4.62981,0.19445 6.828661,-0.15887 z M 53.529554,93.701638 C 48.904612,92.389502 49.700029,86.796356 49.128488,83.070621 47.429418,73.050566 41.996392,64.269665 37.47642,55.346121 c -4.159463,-9.67085 -1.223367,-21.598062 6.658541,-28.494618 11.07449,-10.415824 30.064984,-10.345211 41.092545,0.103861 8.309985,7.306534 10.916347,20.206238 5.811267,30.078113 -4.704671,8.601841 -9.700095,17.43594 -11.086018,27.28444 -0.25312,3.344737 -0.03142,8.150476 -4.01425,9.343321 -5.334328,0.279253 -10.757662,0.02138 -16.120269,0.124648 -2.095466,-0.02264 -4.196749,0.04734 -6.288682,-0.08425 z m 9.772163,-6.270875 C 63.19223,81.579525 63.307919,75.629395 62.60183,69.852571 57.176399,68.051755 51.287097,63.668687 51.600892,57.328077 c -0.494211,-4.926361 6.186765,-7.829712 8.971537,-3.339427 2.25115,2.267179 3.278814,6.734584 4.052613,8.784878 1.577083,-4.661691 3.002333,-10.279866 7.630989,-12.818018 3.876893,-1.961353 9.112645,2.177071 6.830541,6.377185 -2.625809,5.740356 -7.579566,10.372929 -13.229944,13.106706 -0.503368,3.540172 0.267883,7.173675 0.13808,10.756442 0.0905,3.685849 0.09648,7.372862 0.128068,11.059476 3.153619,-0.114877 6.397309,0.273962 9.484897,-0.257037 2.454424,-3.441227 0.880812,-8.35338 2.596603,-12.223376 2.25942,-8.361174 6.549267,-15.94646 10.628429,-23.512483 4.175322,-8.857027 1.717589,-20.112584 -5.63424,-26.54355 -10.271182,-9.688184 -28.104332,-9.4026 -37.941928,0.773007 -7.335529,6.977416 -9.077813,18.96607 -3.828485,27.658995 5.264053,9.584598 10.657015,19.724197 10.970392,30.908032 -0.160646,4.353967 4.713935,3.033547 7.522738,3.173502 1.014539,-0.341928 3.45749,0.731945 3.398478,-0.674058 -0.006,-1.042529 -0.01196,-2.085059 -0.01794,-3.127588 z M 62.272914,66.238894 c -0.657793,-4.252747 -1.61857,-9.268639 -5.394087,-11.874383 -4.735458,0.86618 -1.991058,8.546979 1.309621,10.245796 0.885474,0.295989 4.270823,3.457144 4.084466,1.628587 z m 5.555223,-0.913185 c 3.742446,-2.668691 7.304824,-6.179814 8.868678,-10.585326 -0.520155,-5.679286 -6.920645,-0.631549 -7.242771,2.794054 -0.901868,2.422939 -2.830717,6.594616 -2.362161,8.238953 l 0.736323,-0.447681 z"
     id="path353" /></svg>
